<svg xmlns="http://www.w3.org/2000/svg" fill="white" width="512" height="512" enable-background="new 0 0 512 512" viewBox="0 0 512 512"><path d="M485.883 425.832H26.781c-4.971 0-9-4.029-9-9s4.029-9 9-9h459.102c4.971 0 9 4.029 9 9S490.854 425.832 485.883 425.832zM485.883 264.742H26.781c-4.971 0-9-4.029-9-9s4.029-9 9-9h459.102c4.971 0 9 4.029 9 9S490.854 264.742 485.883 264.742zM485.883 103.653H26.781c-4.971 0-9-4.029-9-9s4.029-9 9-9h459.102c4.971 0 9 4.029 9 9S490.854 103.653 485.883 103.653z"/></svg>